<svg xmlns="http://www.w3.org/2000/svg" xmlns:xlink="http://www.w3.org/1999/xlink" width="250" zoomAndPan="magnify" viewBox="0 0 187.5 60" height="80" preserveAspectRatio="xMidYMid meet" version="1.0"><defs><g/></defs><g fill="#ff3326" fill-opacity="1"><g transform="translate(2.0625, 41.429844)"><g><path d="M 12.03125 -15.527344 L 17.511719 -16.558594 C 16.921875 -19.980469 13.589844 -22.292969 10.140625 -22.292969 L 7.144531 -22.292969 C -2.011719 -22.292969 -2.300781 -8.308594 7.992188 -8.308594 L 10.808594 -8.308594 C 12.5 -8.308594 12.53125 -5.375 10.808594 -5.375 L 7.734375 -5.375 C 6.976562 -5.433594 6.328125 -5.964844 6.097656 -6.644531 L 0.558594 -5.617188 C 1.210938 -2.195312 4.539062 0.121094 7.992188 0.121094 L 10.214844 0.121094 C 15.195312 0.121094 17.769531 -3.421875 17.738281 -6.933594 C 17.679688 -10.414062 15.105469 -13.863281 10.140625 -13.863281 L 7.324219 -13.863281 C 5.601562 -13.863281 5.601562 -16.785156 7.324219 -16.785156 L 10.398438 -16.785156 C 11.15625 -16.753906 11.804688 -16.210938 12.03125 -15.527344 Z M 12.03125 -15.527344 "/></g></g></g><g fill="#ff3326" fill-opacity="1"><g transform="translate(20.48157, 41.429844)"><g><path d="M 9.15625 0 L 14.742188 0 L 14.742188 -7.703125 C 14.742188 -12.394531 10.140625 -16 5.765625 -13.832031 C 6.023438 -21.566406 3.074219 -21.960938 0.316406 -22.25 L 0.316406 0 L 5.886719 0 L 5.886719 -7.703125 C 5.886719 -8.597656 6.597656 -9.382812 7.507812 -9.382812 C 8.460938 -9.382812 9.15625 -8.597656 9.15625 -7.703125 Z M 9.15625 0 "/></g></g></g><g fill="#ff3326" fill-opacity="1"><g transform="translate(36.115835, 41.429844)"><g><path d="M 15.210938 0.105469 L 15.210938 -7.265625 C 15.210938 -11.367188 11.910156 -14.667969 7.839844 -14.667969 C 3.738281 -14.667969 0.4375 -11.367188 0.4375 -7.265625 C 0.4375 -3.132812 3.90625 0.105469 7.839844 0.105469 C 9.355469 0.105469 10.640625 -0.332031 11.835938 -1.058594 C 9.609375 -3.058594 9.140625 -5.222656 9.019531 -6.128906 C 8.761719 -5.75 8.308594 -5.570312 7.839844 -5.570312 C 6.933594 -5.570312 6.175781 -6.328125 6.175781 -7.265625 C 6.175781 -8.144531 6.933594 -8.929688 7.839844 -8.929688 C 8.777344 -8.929688 9.535156 -8.144531 9.476562 -7.203125 C 9.414062 -3.769531 11.910156 -0.652344 15.210938 0.105469 Z M 15.210938 0.105469 "/></g></g></g><g fill="#ff3326" fill-opacity="1"><g transform="translate(52.219272, 41.429844)"><g><path d="M 0.316406 0 L 5.8125 0 L 5.8125 -7.386719 C 5.8125 -8.308594 6.433594 -9.082031 7.886719 -9.082031 L 7.886719 -14.574219 C 3.179688 -14.574219 0.316406 -11.335938 0.316406 -7.417969 Z M 0.316406 0 "/></g></g></g><g fill="#ff3326" fill-opacity="1"><g transform="translate(60.876384, 41.429844)"><g><path d="M 0.210938 -18.328125 C 0.210938 -16.558594 1.621094 -15.152344 3.390625 -15.152344 C 5.160156 -15.152344 6.582031 -16.558594 6.582031 -18.328125 C 6.582031 -20.101562 5.160156 -21.523438 3.390625 -21.523438 C 1.621094 -21.523438 0.210938 -20.101562 0.210938 -18.328125 Z M 0.515625 0 L 6.191406 0 L 6.191406 -14.574219 L 0.515625 -14.574219 Z M 0.515625 0 "/></g></g></g><g fill="#ff3326" fill-opacity="1"><g transform="translate(68.171362, 41.429844)"><g><path d="M 0.347656 -0.03125 L 6.039062 -0.03125 L 6.039062 -6.523438 L 7.28125 -6.523438 L 7.28125 -12.199219 L 6.039062 -12.199219 L 6.039062 -14.757812 C 6.039062 -15.679688 6.734375 -16.46875 7.6875 -16.46875 L 7.6875 -22.097656 C 3.601562 -22.097656 0.347656 -18.78125 0.347656 -14.695312 Z M 0.347656 -0.03125 "/></g></g></g><g fill="#ff3326" fill-opacity="1"><g transform="translate(76.434968, 41.429844)"><g><path d="M 7.597656 -5.3125 C 6.675781 -5.3125 5.933594 -6.097656 5.933594 -6.976562 L 5.933594 -14.53125 L 0.332031 -14.53125 L 0.332031 -7.113281 C 0.332031 -3.101562 3.542969 0.167969 7.582031 0.179688 C 11.640625 0.179688 14.953125 -3.101562 14.953125 -7.113281 L 14.953125 -14.53125 L 9.355469 -14.53125 L 9.355469 -6.976562 C 9.355469 -6.097656 8.597656 -5.3125 7.597656 -5.3125 Z M 7.597656 -5.3125 "/></g></g></g><g fill="#ff3326" fill-opacity="1"><g transform="translate(92.190312, 41.429844)"><g><path d="M 7.566406 0.03125 L 7.566406 -5.585938 C 6.644531 -5.585938 5.902344 -6.191406 5.902344 -7.039062 L 5.902344 -22.203125 L 0.332031 -22.203125 L 0.332031 -7.039062 C 0.332031 -3.132812 3.738281 0.03125 7.566406 0.03125 Z M 7.566406 0.03125 "/></g></g></g><g fill="#ff3326" fill-opacity="1"><g transform="translate(100.408519, 41.429844)"><g/></g></g><g fill="#ffffff" fill-opacity="1"><g transform="translate(106.453116, 41.429844)"><g><path d="M 1.058594 0 L 6.886719 0 L 6.886719 -22.21875 L 1.058594 -22.21875 Z M 1.058594 0 "/></g></g></g><g fill="#ffffff" fill-opacity="1"><g transform="translate(114.731863, 41.429844)"><g><path d="M 11.351562 -9.171875 L 11.351562 -14.53125 L 4.175781 -14.53125 C 0.0898438 -14.53125 -0.984375 -10.050781 2.089844 -7.597656 C 3.058594 -6.839844 3.949219 -5.964844 4.875 -5.222656 L 0.300781 -5.222656 L 0.300781 0.015625 L 7.6875 0.015625 C 11.625 0.015625 12.910156 -4.117188 10.324219 -6.433594 L 7.339844 -9.171875 Z M 11.351562 -9.171875 "/></g></g></g><g fill="#ffffff" fill-opacity="1"><g transform="translate(127.0062, 41.429844)"><g><path d="M 7.566406 0.03125 L 7.566406 -5.585938 C 6.644531 -5.585938 5.902344 -6.191406 5.902344 -7.039062 L 5.902344 -22.203125 L 0.332031 -22.203125 L 0.332031 -7.039062 C 0.332031 -3.132812 3.738281 0.03125 7.566406 0.03125 Z M 7.566406 0.03125 "/></g></g></g><g fill="#ffffff" fill-opacity="1"><g transform="translate(135.224407, 41.429844)"><g><path d="M 15.210938 0.105469 L 15.210938 -7.265625 C 15.210938 -11.367188 11.910156 -14.667969 7.839844 -14.667969 C 3.738281 -14.667969 0.4375 -11.367188 0.4375 -7.265625 C 0.4375 -3.132812 3.90625 0.105469 7.839844 0.105469 C 9.355469 0.105469 10.640625 -0.332031 11.835938 -1.058594 C 9.609375 -3.058594 9.140625 -5.222656 9.019531 -6.128906 C 8.761719 -5.75 8.308594 -5.570312 7.839844 -5.570312 C 6.933594 -5.570312 6.175781 -6.328125 6.175781 -7.265625 C 6.175781 -8.144531 6.933594 -8.929688 7.839844 -8.929688 C 8.777344 -8.929688 9.535156 -8.144531 9.476562 -7.203125 C 9.414062 -3.769531 11.910156 -0.652344 15.210938 0.105469 Z M 15.210938 0.105469 "/></g></g></g><g fill="#ffffff" fill-opacity="1"><g transform="translate(151.327845, 41.429844)"><g><path d="M 18.101562 0 L 23.625 0 L 23.625 -7.492188 C 23.625 -11.457031 20.417969 -14.726562 16.421875 -14.757812 C 14.800781 -14.757812 12.773438 -14.046875 11.972656 -12.5 C 10.957031 -14.089844 9.21875 -14.726562 7.566406 -14.757812 C 5.949219 -14.757812 4.359375 -14.210938 3.117188 -13.226562 C 2.300781 -13.863281 1.347656 -14.347656 0.300781 -14.558594 L 0.300781 0 L 5.796875 0 L 5.796875 -8.035156 C 5.796875 -8.960938 6.582031 -9.71875 7.507812 -9.71875 C 8.429688 -9.71875 9.234375 -8.960938 9.234375 -8.035156 L 9.234375 0 L 14.652344 0 L 14.652344 -8.007812 C 14.652344 -8.929688 15.46875 -9.71875 16.390625 -9.71875 C 17.316406 -9.71875 18.101562 -8.960938 18.101562 -8.035156 Z M 18.101562 0 "/></g></g></g><g fill="#ff3326" fill-opacity="1"><g transform="translate(175.898423, 41.429844)"><g><path d="M 1.574219 0 L 7.628906 0 L 7.628906 -5.132812 L 1.574219 -5.132812 Z M 1.574219 0 "/></g></g></g></svg>